# xmcd CD database file
#
# Track frame offsets:
#	150
#	20835
#	39600
#	61637
#	88472
#	103220
#	119067
#	137395
#	168587
#	192345
#	211912
#	237062
#	264507
#
# Disc length: 3870 seconds
#
# Revision: 0
# Processed by: cddbd v1.5.2PL0 Copyright (c) Steve Scherf et al.
# Submitted via: CDex 1.51
#
DISCID=bc0f1c0d
DTITLE=Jason Moran - Ten
DYEAR=2010
DGENRE=Jazz
TTITLE0=Blue Blocks
TTITLE1=RFK In The Land Of Apartheid
TTITLE2=Feedback Pt. 2
TTITLE3=Crepuscule With Nellie
TTITLE4=Study No. 6
TTITLE5=Pas De Deux - Lines Ballet
TTITLE6=Study No. 6
TTITLE7=Gangsterism Over 10 Years
TTITLE8=Big Stuff
TTITLE9=Play To Live
TTITLE10=The Subtle One
TTITLE11=To Bob Vatel Of Paris
TTITLE12=Old Babies
EXTD=YEAR: 2010
EXTT0=
EXTT1=
EXTT2=
EXTT3=
EXTT4=
EXTT5=
EXTT6=
EXTT7=
EXTT8=
EXTT9=
EXTT10=
EXTT11=
EXTT12=
PLAYORDER=
